<?xml version="1.0" standalone="no"?>
<!DOCTYPE svg PUBLIC "-//W3C//DTD SVG 20010904//EN"
 "http://www.w3.org/TR/2001/REC-SVG-20010904/DTD/svg10.dtd">
<svg version="1.0" xmlns="http://www.w3.org/2000/svg"
 width="729.000000pt" height="911.000000pt" viewBox="0 0 729.000000 911.000000"
 preserveAspectRatio="xMidYMid meet">

<g transform="translate(0.000000,911.000000) scale(0.100000,-0.100000)"
fill="#000000" stroke="none">
<path d="M3490 6764 c-257 -31 -356 -51 -526 -105 -214 -68 -421 -174 -629
-322 -125 -90 -368 -329 -462 -457 -344 -466 -491 -1004 -428 -1569 43 -384
173 -731 391 -1043 30 -42 54 -87 54 -100 0 -76 -76 -363 -142 -537 l-32 -83
20 -36 c32 -60 57 -68 166 -53 168 23 415 89 547 147 29 13 59 24 65 24 6 0
74 -31 151 -69 300 -149 581 -218 920 -228 215 -6 364 8 558 52 408 91 785
301 1079 597 328 332 532 723 619 1188 20 108 23 157 23 355 0 241 -8 331 -50
515 -200 891 -937 1572 -1845 1705 -102 15 -410 27 -479 19z m516 -1344 c387
-13 612 -32 684 -59 99 -38 186 -130 227 -241 15 -40 26 -56 42 -58 20 -3 21
0 21 95 0 115 10 136 60 136 53 0 60 -19 60 -173 0 -129 1 -138 25 -169 32
-45 43 -105 49 -296 8 -220 -5 -417 -31 -475 -34 -75 -88 -121 -164 -140 -42
-11 -46 -15 -63 -63 -36 -101 -116 -190 -210 -233 -107 -49 -432 -69 -1081
-68 -530 1 -879 18 -979 48 -125 38 -223 136 -265 268 -10 29 -19 38 -44 44
-78 16 -148 74 -184 152 -15 32 -17 76 -18 352 0 330 2 346 47 412 15 22 18
47 18 165 0 126 2 141 20 161 24 26 62 29 84 6 16 -16 20 -58 16 -166 -2 -55
-1 -58 22 -58 19 0 28 12 52 73 51 125 166 220 296 246 114 22 425 38 945 49
39 1 205 -3 371 -8z"/>
<path d="M2980 5216 c-240 -17 -276 -23 -327 -52 -66 -38 -91 -91 -104 -220
-15 -140 -15 -668 -1 -802 17 -165 73 -232 206 -246 160 -18 615 -36 896 -36
420 0 908 27 973 55 42 18 92 71 112 119 27 63 41 461 28 754 -13 269 -20 301
-86 359 -46 40 -79 49 -242 64 -191 17 -1225 20 -1455 5z m128 -409 c59 -39
72 -79 72 -222 0 -105 -3 -132 -20 -164 -43 -85 -161 -113 -235 -57 -56 43
-69 77 -73 196 -5 133 7 183 59 232 56 53 130 59 197 15z m1221 23 c46 -13 99
-65 111 -110 5 -19 10 -84 10 -145 0 -126 -12 -160 -72 -208 -30 -24 -47 -30
-91 -31 -62 0 -92 15 -134 71 -26 34 -28 43 -31 152 -2 64 1 135 7 157 17 64
82 115 156 123 6 1 26 -3 44 -9z m-521 -442 c32 -32 -7 -116 -71 -150 -50 -27
-134 -24 -179 7 -40 27 -78 82 -78 112 0 38 18 43 170 43 100 0 150 -4 158
-12z"/>
</g>
</svg>
